<?xml version="1.0" encoding="iso-8859-1"?>
<!-- Generator: Adobe Illustrator 19.0.0, SVG Export Plug-In . SVG Version: 6.00 Build 0)  -->
<svg version="1.1" id="Layer_1" xmlns="http://www.w3.org/2000/svg" xmlns:xlink="http://www.w3.org/1999/xlink" x="0px" y="0px"
	 viewBox="0 0 496.2 496.2" style="enable-background:new 0 0 496.2 496.2;" xml:space="preserve">
<path style="fill:#48A1AF;" d="M496.2,248.1C496.2,111.1,385.1,0,248.1,0S0,111.1,0,248.1s111.1,248.1,248.1,248.1
	S496.2,385.1,496.2,248.1z"/>
<path style="fill:#7D7547;" d="M248.1,496.2c70.2,0,133.6-29.2,178.7-76c-2.8-15.1-5.6-28.9-8.3-37.4
	c-8.5-27.3-81.2-49.3-170.8-49.3s-161.5,22-170,49.3c-2.6,8.5-5.5,22.2-8.3,37.4C114.5,467,177.9,496.2,248.1,496.2z"/>
<g>
	<path style="fill:#E0CD7C;" d="M366.2,434.4c-1.2-1.4-2.9-2.2-4.6-3.1c-0.9-0.4-1.7-0.9-2.7-1.1c-1-0.3-2.2-0.3-3.3-0.5
		c-2.3-0.2-4.2-0.9-5.2-2.5s-0.7-4.6-1.4-6.6c-0.3-1-0.9-1.7-1.7-2.2c-0.8-0.5-1.6-1-2.6-1.3s-2-0.5-3.3-0.5c-1.2,0-2.6,0.1-4.2,0.5
		l-1,1.1c-0.3,1.7-0.3,3-0.2,4.3c0.1,1.2,0.4,2.3,0.7,3.2c0.4,0.9,0.9,1.8,1.4,2.5c0.6,0.7,1.3,1.3,2.3,1.6c2,0.5,5,0,6.6,0.9
		c1.7,0.9,2.5,2.7,2.8,5c0.2,1.1,0.4,2.3,0.7,3.3c0.3,1,0.8,1.8,1.3,2.6c0.9,1.7,1.9,3.4,3.4,4.4c1.5,1.1,3.3,1.8,5.4,2.2
		c2.1,0.4,4.5,0.6,7.5,0l1-1.1c0.4-3.1,0.1-5.4-0.5-7.5C368.3,437.6,367.4,435.8,366.2,434.4z"/>
	<path style="fill:#E0CD7C;" d="M236.3,490.2c-1.3-0.7-2.7-1.2-4.2-1.8c-2.9-1.1-5.3-2.6-6.7-5c-1.5-2.4-1.5-6-2.5-8.7
		c-0.5-1.4-1.4-2.4-2.4-3.4c-1-0.9-2.1-1.8-3.3-2.5s-2.6-1.4-4.1-1.9s-3.2-0.9-5.2-0.9l-1.1,1c-0.2,2,0,3.7,0.3,5.2
		c0.3,1.6,0.8,3,1.3,4.3c0.6,1.3,1.3,2.5,2.1,3.6s1.7,2.1,3,2.8c2.5,1.4,6.2,1.9,8.3,3.6c2.2,1.7,3.4,4.3,4.1,7.3
		c0.1,0.5,0.2,0.9,0.4,1.4c5.9,0.5,11.8,0.8,17.8,0.9c-1.3-1.3-2.8-2.4-4.3-3.5C238.7,491.7,237.6,490.9,236.3,490.2z"/>
	<path style="fill:#E0CD7C;" d="M228.3,390.3c-1.6-0.6-2.9-0.7-4.2-0.8c-1.2-0.1-2.3,0.1-3.3,0.3c-1,0.2-1.9,0.6-2.7,1.1
		s-1.5,1.1-1.9,2.1c-0.8,1.9-0.7,4.9-1.8,6.4c-1.1,1.6-3,2.1-5.3,2.1c-1.1,0-2.3,0-3.3,0.2s-1.9,0.6-2.8,0.9
		c-1.8,0.7-3.6,1.4-4.8,2.7c-1.3,1.3-2.2,3.1-2.9,5.1s-1.2,4.3-1,7.5l0.9,1.2c3,0.8,5.4,0.8,7.5,0.6c2.1-0.3,4-0.9,5.6-1.8
		c1.6-1,2.6-2.6,3.7-4.2c0.5-0.8,1.1-1.6,1.5-2.5c0.4-1,0.6-2.1,0.9-3.2c0.5-2.3,1.4-4,3.2-4.8c1.7-0.8,4.6-0.1,6.7-0.5
		c1-0.2,1.8-0.7,2.4-1.4c0.6-0.7,1.2-1.5,1.6-2.4c0.4-0.9,0.8-1.9,1-3.2c0.2-1.2,0.3-2.5,0.1-4.3L228.3,390.3z"/>
</g>
<g>
	<path style="fill:#603616;" d="M309.1,388.9c-0.8-1.2-1.6-2.4-2.6-3.4c-0.9-1-2-1.9-3.4-2.4c-2.7-1.1-6.4-1.1-8.8-2.6
		c-2.4-1.4-4-3.8-5.2-6.8c-0.6-1.4-1.2-2.9-1.9-4.2c-0.7-1.3-1.6-2.4-2.4-3.5c-1.7-2.3-3.4-4.5-5.7-6.2c-2.2-1.6-4.8-2.9-7.6-3.9
		c-1.4-0.5-2.9-0.9-4.5-1.2c-1.6-0.3-3.3-0.5-5.2-0.4l-1,1.1c0.2,1.9,0.6,3.5,1.1,5.1c0.5,1.5,1.1,3,1.8,4.3c1.4,2.7,3,5,4.9,7.1
		c1.9,2,4.4,3.4,6.9,4.8c1.2,0.7,2.4,1.4,3.8,1.9s2.9,0.9,4.4,1.3c3,0.7,5.6,2,7.4,4.2s2.3,5.8,3.7,8.4c0.7,1.3,1.7,2.3,2.9,3.1
		c1.1,0.8,2.4,1.5,3.7,2.1c1.3,0.6,2.8,1.1,4.3,1.4c1.6,0.3,3.3,0.5,5.3,0.3l1-1.1c-0.1-2-0.5-3.7-1-5.2
		C310.5,391.5,309.9,390.1,309.1,388.9z"/>
	<path style="fill:#603616;" d="M111.4,451.9c3.4,0.2,6.7-0.4,10.1-0.9c1.7-0.3,3.4-0.5,5.1-1.1c1.7-0.5,3.4-1.2,5.1-1.9
		c3.4-1.4,6.7-2.2,10.1-1.7c3.4,0.4,6.8,2.9,10.1,3.8c1.7,0.5,3.4,0.6,5.1,0.4c1.7-0.1,3.4-0.4,5.1-0.8c1.7-0.4,3.4-1,5.1-1.8
		c1.7-0.8,3.4-1.8,5.1-3.3v-1.5c-1.7-1.5-3.4-2.4-5.1-3.3c-1.7-0.8-3.4-1.4-5.1-1.8c-1.7-0.4-3.4-0.7-5.1-0.8
		c-1.7-0.2-3.4-0.1-5.1,0.4c-3.4,1-6.7,3.4-10.1,3.9c-3.4,0.5-6.8-0.2-10.1-1.7c-1.7-0.7-3.4-1.4-5.1-1.9c-1.7-0.5-3.4-0.8-5.1-1
		c-3.4-0.6-6.8-1.2-10.1-0.9c-1.7,0.1-3.4,0.4-5.1,0.7c-1.7,0.3-3.4,0.8-5.1,1.4s-3.4,1.2-5.1,2.1c-1,0.5-2,1.1-3.1,1.7
		c4,3.2,8,6.2,12.2,9.2c0.3,0.1,0.7,0.2,1,0.2C108,451.5,109.7,451.8,111.4,451.9z"/>
	<path style="fill:#603616;" d="M414.1,382.9c-2.8,1-5.5,3.4-8.3,3.9s-5.6-0.2-8.3-1.7c-1.4-0.7-2.8-1.4-4.2-1.9
		c-1.4-0.5-2.8-0.8-4.2-1c-2.8-0.6-5.6-1.2-8.3-0.9c-2.8,0.2-5.6,1-8.3,2.1c-1.4,0.6-2.8,1.2-4.2,2.1c-1.4,0.8-2.8,1.8-4.2,3.1v1.5
		c1.4,1.3,2.8,2.3,4.2,3.1c1.4,0.8,2.8,1.5,4.2,2.1c2.8,1.1,5.6,1.8,8.3,2.1c2.8,0.2,5.6-0.4,8.3-0.9c1.4-0.3,2.8-0.5,4.2-1.1
		c1.4-0.5,2.8-1.2,4.2-1.9c2.8-1.4,5.5-2.2,8.3-1.7c2.8,0.4,5.6,2.9,8.3,3.8c1.4,0.5,2.8,0.6,4.2,0.4c1.2-0.1,2.3-0.3,3.5-0.7
		c-1.1-4.8-2.2-9-3.2-12.4c0-0.1-0.1-0.2-0.1-0.3c-0.1,0-0.1,0-0.2,0C416.9,382.3,415.5,382.4,414.1,382.9z"/>
</g>
<g>
	<path style="fill:#2D2825;" d="M118.9,357.7c0.7,1.3,1.5,2.5,2.4,3.5c0.9,1.1,1.9,2,3.3,2.6c2.7,1.3,6.3,1.5,8.6,3.2
		c2.3,1.6,3.8,4.1,4.7,7.1c0.5,1.5,1,3,1.6,4.3c0.6,1.4,1.4,2.5,2.2,3.7c1.6,2.4,3.1,4.8,5.2,6.5c2.1,1.8,4.6,3.2,7.4,4.4
		c1.4,0.6,2.8,1.1,4.4,1.5c1.6,0.4,3.2,0.7,5.1,0.7l1.1-1.1c-0.1-1.9-0.4-3.6-0.8-5.1c-0.4-1.6-0.9-3-1.5-4.4
		c-1.2-2.8-2.6-5.2-4.4-7.4c-1.8-2.1-4.2-3.7-6.6-5.2c-1.2-0.8-2.3-1.6-3.7-2.2c-1.3-0.6-2.8-1.1-4.3-1.6c-3-0.9-5.5-2.3-7.1-4.7
		c-1.6-2.3-1.9-6-3.2-8.6c-0.6-1.3-1.6-2.4-2.7-3.2c-1.1-0.9-2.2-1.7-3.5-2.3c-3.5,1.1-6.9,2.3-10.1,3.5c0,0.2,0.1,0.4,0.1,0.5
		C117.7,355,118.3,356.4,118.9,357.7z"/>
	<path style="fill:#2D2825;" d="M304.6,484.3c1-3.1,1.1-6.4,1.3-9.7c0.1-1.6,0.2-3.3,0.1-5s-0.5-3.4-0.8-5.2
		c-0.7-3.5-0.7-6.8,0.6-9.8c1.2-3,4.3-5.6,6-8.6c0.9-1.5,1.3-3,1.5-4.6s0.3-3.2,0.3-4.9c-0.1-1.7-0.3-3.4-0.7-5.1
		c-0.4-1.8-1-3.6-2.1-5.5l-1.5-0.3c-1.8,1.2-3.1,2.6-4.3,4c-1.2,1.4-2.1,2.8-2.9,4.3s-1.4,3-1.9,4.5s-0.8,3.1-0.7,4.8
		c0.2,3.4,1.8,7.1,1.5,10.3c-0.2,3.3-1.7,6.2-3.9,9.1c-1,1.4-2.1,2.8-3,4.3s-1.5,3-2.1,4.5c-1.3,3-2.6,6-3.1,9.2
		c-0.3,1.6-0.4,3.2-0.4,4.9c0,1.7,0,3.3,0.2,5c0.1,0.7,0.2,1.5,0.3,2.2c4.4-0.7,8.7-1.6,12.9-2.5c0.2-0.5,0.5-0.9,0.7-1.4
		C303.5,487.4,304.1,485.8,304.6,484.3z"/>
</g>
<rect x="202.9" y="324.9" style="fill:#443E26;" width="90.5" height="23.7"/>
<path style="fill:#C9DEE2;" d="M247.7,333.4c-1.4,0-2.9,0-4.3,0c-0.4,0-0.8,0-1.1,0c-1.1,0-2.1,0-3.2,0c-0.2,0-0.5,0-0.7,0
	c-11.8,0.2-23,0.8-33.3,1.7c-7,0.6,43,114.4,43,114.4s48.1-113.7,42.7-114.3C277.9,334.1,263.7,333.4,247.7,333.4z"/>
<g>
	<polygon style="fill:#68603A;" points="293.3,324.9 248.1,453.6 335.5,344.4 	"/>
	<polygon style="fill:#68603A;" points="203.1,324.9 248.1,453.6 160.6,344.4 	"/>
</g>
<path style="fill:#E2A379;" d="M287,282.1h-77.8c12.1,36.6,1,53.3,1,53.3s16.9,6.1,37.9,6.1s37.9-6.1,37.9-6.1
	S274.9,318.7,287,282.1z"/>
<path style="fill:#F4B382;" d="M336.4,175.2c0-92.4-39.5-113.6-88.3-113.6c-48.7,0-88.3,21.2-88.3,113.6c0,31.3,6.2,55.8,15.5,74.7
	c20.4,41.6,55.7,56.1,72.8,56.1s52.4-14.5,72.8-56.1C330.2,231,336.4,206.5,336.4,175.2z"/>
<g>
	<path style="fill:#191919;" d="M247.6,292.9h0.5C247.9,292.9,247.8,292.9,247.6,292.9L247.6,292.9z"/>
	<path style="fill:#191919;" d="M248.6,292.9L248.6,292.9c-0.2,0-0.3,0-0.5,0H248.6z"/>
</g>
<g>
	<path style="fill:#F4B382;" d="M170.4,238.7c-8.4,1.4-14.4,0.1-19.1-27.7s1.7-31.5,10.1-32.9L170.4,238.7z"/>
	<path style="fill:#F4B382;" d="M325.9,238.7c8.4,1.4,14.3,0.1,19.1-27.7c4.8-27.8-1.7-31.5-10.1-32.9L325.9,238.7z"/>
</g>
<path style="fill:#E5A173;" d="M274.8,257c0,2.6-11.9,9.5-26.7,9.5s-26.7-7-26.7-9.5c0-1.6,8.5-6.1,14.1-6.9
	c3.6-0.5,12.5,2.9,12.5,2.9s8.8-3.4,12.4-2.9C266.2,250.9,274.8,257,274.8,257z"/>
<path style="fill:#D89364;" d="M274.8,257c0,2.6-11.9,12.4-26.7,12.4s-26.7-9.9-26.7-12.4c0,0,10.9,1.3,26.7,1.3
	S274.8,257,274.8,257z"/>
<path style="fill:#30302E;" d="M336.4,175.2c0-92.4-30.3-116.1-88.3-116.1s-88.3,23.7-88.3,116.1l39.8-33.1c0,0,26.5,0,48.5,0
	s46.2-35.3,46.2-35.3L336.4,175.2z"/>
<path style="fill:#603616;" d="M336.1,67.1c-32-26-130-16-178,16s0,54,0,54h178C336.1,137.1,368.1,93.1,336.1,67.1z"/>
<circle style="fill:#D61E1E;" cx="248.1" cy="95.1" r="27.5"/>
<g>
	<rect x="229.2" y="90.1" style="fill:#E6E7E8;" width="37.8" height="10.1"/>
	<rect x="243.1" y="76.2" style="fill:#E6E7E8;" width="10.1" height="37.8"/>
</g>
<g>
	<path style="fill:#30302E;" d="M165.5,140.8c-4.2,10.9-5.6,24.4-5.6,37.5c0,0,8.8-1.9,8.8,2.6l2.8,27.6l3.9-1.9
		c-0.2-23,4.9-68,4.9-68L165.5,140.8z"/>
	<path style="fill:#30302E;" d="M330.8,140.8c4.2,10.9,5.6,24.4,5.6,37.5c0,0-8.8-1.9-8.8,2.6l-2.8,27.6l-3.9-1.9
		c0.2-23-4.9-66.2-4.9-66.2L330.8,140.8z"/>
</g>
<g>
	<path style="fill:#FFFFFF;" d="M311.5,337.4L311.5,337.4L311.5,337.4L311.5,337.4z"/>
	<path style="fill:#FFFFFF;" d="M298.5,335.9L298.5,335.9L298.5,335.9z"/>
</g>
<g>
</g>
<g>
</g>
<g>
</g>
<g>
</g>
<g>
</g>
<g>
</g>
<g>
</g>
<g>
</g>
<g>
</g>
<g>
</g>
<g>
</g>
<g>
</g>
<g>
</g>
<g>
</g>
<g>
</g>
</svg>
