<?xml version="1.0" encoding="iso-8859-1"?>
<!-- Generator: Adobe Illustrator 19.0.0, SVG Export Plug-In . SVG Version: 6.00 Build 0)  -->
<svg version="1.1" id="Layer_1" xmlns="http://www.w3.org/2000/svg" xmlns:xlink="http://www.w3.org/1999/xlink" x="0px" y="0px"
	 viewBox="0 0 496.2 496.2" style="enable-background:new 0 0 496.2 496.2;" xml:space="preserve">
<path style="fill:#48A1AF;" d="M496.2,248.1C496.2,111.1,385.1,0,248.1,0S0,111.1,0,248.1s111.1,248.1,248.1,248.1
	S496.2,385.1,496.2,248.1z"/>
<g>
	<path style="fill:#E2A379;" d="M287,282.1h-77.8c12.1,36.6,1,53.3,1,53.3l26.9,6.1h22l26.9-6.1C286,335.4,274.9,318.7,287,282.1z"
		/>
	<path style="fill:#E2A379;" d="M248.2,390.1c44.9,0,37.8-54.7,37.8-54.7s-8.9,17.3-38.1,17.3s-37.5-17.3-37.5-17.3
		S203.3,390.1,248.2,390.1z"/>
</g>
<rect x="202.9" y="324.9" style="fill:#443E26;" width="90.5" height="23.7"/>
<path style="fill:#E2A379;" d="M247.8,333.4c-77.2,0-139.1,22.1-146.4,49.3c-3.3,12.2-7,35.2-10.1,57.5
	c42.7,34.9,97.4,55.9,156.9,55.9s114.1-21,156.9-55.9c-3.2-22.3-6.9-45.4-10.1-57.5C387.5,355.5,324.9,333.4,247.8,333.4z"/>
<path style="fill:#7D7547;" d="M247.8,333.4c-77.2,0-139.1,22.1-146.4,49.3c-3.3,12.2-7,35.2-10.1,57.5
	c42.7,34.9,97.4,55.9,156.9,55.9s114.1-21,156.9-55.9c-3.2-22.3-6.9-45.4-10.1-57.5C387.5,355.5,324.9,333.4,247.8,333.4z"/>
<path style="fill:#E0CD7C;" d="M229.2,391.5c0.2,1.7,0.1,3-0.1,4.3c-0.2,1.2-0.5,2.2-1,3.2c-0.4,0.9-1,1.7-1.6,2.4
	c-0.6,0.7-1.4,1.2-2.4,1.4c-2,0.4-5-0.3-6.7,0.5c-1.7,0.7-2.7,2.5-3.2,4.8c-0.3,1.1-0.5,2.3-0.9,3.2c-0.4,1-0.9,1.8-1.5,2.5
	c-1.1,1.6-2.1,3.2-3.7,4.2c-1.6,1-3.4,1.6-5.6,1.8c-2.1,0.3-4.5,0.3-7.5-0.6l-0.9-1.2c-0.2-3.1,0.3-5.4,1-7.5c0.7-2,1.7-3.7,2.9-5.1
	c1.3-1.3,3.1-2,4.8-2.7c0.9-0.4,1.7-0.8,2.8-0.9c1-0.2,2.2-0.2,3.3-0.2c2.3,0,4.2-0.6,5.3-2.1s1-4.5,1.8-6.4c0.4-1,1.1-1.6,1.9-2.1
	c0.8-0.5,1.7-0.8,2.7-1.1c1-0.2,2.1-0.4,3.3-0.3s2.5,0.2,4.2,0.8L229.2,391.5z"/>
<g>
	<path style="fill:#603616;" d="M311.1,399.3c-2,0.2-3.7,0-5.3-0.3c-1.6-0.3-3-0.8-4.3-1.4s-2.6-1.3-3.7-2.1
		c-1.1-0.8-2.1-1.8-2.9-3.1c-1.4-2.6-2-6.2-3.7-8.4c-1.7-2.2-4.4-3.5-7.4-4.2c-1.5-0.4-3-0.8-4.4-1.3s-2.6-1.2-3.8-1.9
		c-2.5-1.4-5-2.8-6.9-4.8s-3.5-4.4-4.9-7.1c-0.7-1.3-1.3-2.8-1.8-4.3s-0.9-3.2-1.1-5.1l1-1.1c1.9-0.1,3.6,0.1,5.2,0.4
		s3.1,0.7,4.5,1.2c2.8,1,5.4,2.3,7.6,3.9c2.3,1.6,4,3.9,5.7,6.2c0.9,1.1,1.7,2.2,2.4,3.5c0.7,1.3,1.3,2.8,1.9,4.2
		c1.1,2.9,2.7,5.3,5.2,6.8c2.4,1.5,6.1,1.5,8.8,2.6c1.4,0.5,2.5,1.4,3.4,2.4c1,1,1.8,2.1,2.6,3.4c0.8,1.2,1.4,2.6,1.9,4.1
		s0.9,3.2,1,5.2L311.1,399.3z"/>
	<path style="fill:#603616;" d="M182.8,444.5c-1.4,1.5-2.8,2.5-4.2,3.3s-2.8,1.4-4.2,1.8s-2.8,0.7-4.2,0.8c-1.4,0.2-2.8,0.1-4.2-0.4
		c-2.8-1-5.6-3.4-8.3-3.8c-2.8-0.5-5.6,0.3-8.3,1.7c-1.4,0.7-2.8,1.4-4.2,1.9s-2.8,0.8-4.2,1.1c-2.8,0.6-5.6,1.2-8.3,0.9
		c-2.8-0.2-5.6-1-8.3-2.1c-1.4-0.6-2.8-1.2-4.2-2.1c-1.4-0.8-2.8-1.8-4.2-3.1V443c1.4-1.3,2.8-2.3,4.2-3.1c1.4-0.8,2.8-1.5,4.2-2.1
		c2.8-1.1,5.5-1.9,8.3-2.1c2.8-0.3,5.6,0.3,8.3,0.9c1.4,0.3,2.8,0.5,4.2,1s2.8,1.2,4.2,1.9c2.8,1.4,5.6,2.2,8.3,1.7
		c2.8-0.5,5.5-2.9,8.3-3.9c1.4-0.5,2.8-0.6,4.2-0.4c1.4,0.1,2.8,0.4,4.2,0.8s2.8,1,4.2,1.8s2.8,1.8,4.2,3.3V444.5z"/>
</g>
<g>
	<path style="fill:#E0CD7C;" d="M366.2,434.4c-1.2-1.4-2.9-2.2-4.6-3.1c-0.9-0.4-1.7-0.9-2.7-1.1c-1-0.3-2.2-0.3-3.3-0.5
		c-2.3-0.2-4.2-0.9-5.2-2.5s-0.7-4.6-1.4-6.6c-0.3-1-0.9-1.7-1.7-2.2c-0.8-0.5-1.6-1-2.6-1.3s-2-0.5-3.3-0.5c-1.2,0-2.6,0.1-4.2,0.5
		l-1,1.1c-0.3,1.7-0.3,3-0.2,4.3c0.1,1.2,0.4,2.3,0.7,3.2c0.4,0.9,0.9,1.8,1.4,2.5c0.6,0.7,1.3,1.3,2.3,1.6c2,0.5,5,0,6.6,0.9
		c1.7,0.9,2.5,2.7,2.8,5c0.2,1.1,0.4,2.3,0.7,3.3c0.3,1,0.8,1.8,1.3,2.6c0.9,1.7,1.9,3.4,3.4,4.4c1.5,1.1,3.3,1.8,5.4,2.2
		c2.1,0.4,4.5,0.6,7.5,0l1-1.1c0.4-3.1,0.1-5.4-0.5-7.5C368.3,437.6,367.4,435.8,366.2,434.4z"/>
	<path style="fill:#E0CD7C;" d="M236.3,490.2c-1.3-0.7-2.7-1.2-4.2-1.8c-2.9-1.1-5.3-2.6-6.7-5c-1.5-2.4-1.5-6-2.5-8.7
		c-0.5-1.4-1.4-2.4-2.4-3.4c-1-0.9-2.1-1.8-3.3-2.5s-2.6-1.4-4.1-1.9s-3.2-0.9-5.2-0.9l-1.1,1c-0.2,2,0,3.7,0.3,5.2
		c0.3,1.6,0.8,3,1.3,4.3c0.6,1.3,1.3,2.5,2.1,3.6s1.7,2.1,3,2.8c2.5,1.4,6.2,1.9,8.3,3.6c2.2,1.7,3.4,4.3,4.1,7.3
		c0.1,0.5,0.2,0.9,0.4,1.4c5.9,0.5,11.8,0.8,17.8,0.9c-1.3-1.3-2.8-2.4-4.3-3.5C238.7,491.7,237.6,490.9,236.3,490.2z"/>
</g>
<path style="fill:#603616;" d="M393.3,383.1c-1.4-0.5-2.8-0.8-4.2-1c-2.8-0.6-5.6-1.2-8.3-0.9c-2.8,0.2-5.6,1-8.3,2.1
	c-1.4,0.6-2.8,1.2-4.2,2.1c-1.4,0.8-2.8,1.8-4.2,3.1v1.5c1.4,1.3,2.8,2.3,4.2,3.1c1.4,0.8,2.8,1.5,4.2,2.1c2.8,1.1,5.6,1.8,8.3,2.1
	c2.8,0.2,5.6-0.4,8.3-0.9c1.4-0.3,2.8-0.5,4.2-1.1c1.3-0.5,2.7-1.2,4-1.8c-0.7-3.5-1.4-6.7-2.1-9.4
	C394.5,383.6,393.9,383.4,393.3,383.1z"/>
<g>
	<path style="fill:#2D2825;" d="M124.6,363.9c2.7,1.3,6.3,1.5,8.6,3.2c2.3,1.6,3.8,4.1,4.7,7.1c0.5,1.5,1,3,1.6,4.3
		c0.6,1.4,1.4,2.5,2.2,3.7c1.6,2.4,3.1,4.8,5.2,6.5c2.1,1.8,4.6,3.2,7.4,4.4c1.4,0.6,2.8,1.1,4.4,1.5c1.6,0.4,3.2,0.7,5.1,0.7
		l1.1-1.1c-0.1-1.9-0.4-3.6-0.8-5.1c-0.4-1.6-0.9-3-1.5-4.4c-1.2-2.8-2.6-5.2-4.4-7.4c-1.8-2.1-4.2-3.7-6.6-5.2
		c-1.2-0.8-2.3-1.6-3.7-2.2c-1.3-0.6-2.8-1.1-4.3-1.6c-3-0.9-5.5-2.3-7.1-4.7c-1.6-2.3-1.9-6-3.2-8.6c-0.2-0.3-0.3-0.6-0.5-0.9
		c-4.4,2.1-8.5,4.2-12.1,6.5c0.2,0.2,0.3,0.4,0.5,0.6C122.2,362.3,123.2,363.2,124.6,363.9z"/>
	<path style="fill:#2D2825;" d="M304.6,484.3c1-3.1,1.1-6.4,1.3-9.7c0.1-1.6,0.2-3.3,0.1-5s-0.5-3.4-0.8-5.2
		c-0.7-3.5-0.7-6.8,0.6-9.8c1.2-3,4.3-5.6,6-8.6c0.9-1.5,1.3-3,1.5-4.6s0.3-3.2,0.3-4.9c-0.1-1.7-0.3-3.4-0.7-5.1
		c-0.4-1.8-1-3.6-2.1-5.5l-1.5-0.3c-1.8,1.2-3.1,2.6-4.3,4c-1.2,1.4-2.1,2.8-2.9,4.3s-1.4,3-1.9,4.5s-0.8,3.1-0.7,4.8
		c0.2,3.4,1.8,7.1,1.5,10.3c-0.2,3.3-1.7,6.2-3.9,9.1c-1,1.4-2.1,2.8-3,4.3s-1.5,3-2.1,4.5c-1.3,3-2.6,6-3.1,9.2
		c-0.3,1.6-0.4,3.2-0.4,4.9c0,1.7,0,3.3,0.2,5c0.1,0.7,0.2,1.5,0.3,2.2c4.3-0.7,8.7-1.5,12.9-2.5c0.3-0.5,0.5-1,0.7-1.4
		C303.5,487.4,304.1,485.8,304.6,484.3z"/>
</g>
<path style="fill:#C9DEE2;" d="M247.7,333.4c-1.4,0-2.9,0-4.3,0c-0.4,0-0.8,0-1.1,0c-1.1,0-2.1,0-3.2,0c-0.2,0-0.5,0-0.7,0
	c-11.8,0.2-23,0.8-33.3,1.7c-7,0.6,43,114.4,43,114.4s48.1-113.7,42.7-114.3C277.9,334.1,263.7,333.4,247.7,333.4z"/>
<path style="fill:#E2A379;" d="M287,282.1h-77.8c12.1,36.6,1,53.3,1,53.3s16.4,6.1,37.9,6.1s37.9-6.1,37.9-6.1
	S274.9,318.7,287,282.1z"/>
<g>
	<polygon style="fill:#68603A;" points="293.3,324.9 248.1,453.6 335.5,344.4 	"/>
	<polygon style="fill:#68603A;" points="203.1,324.9 248.1,453.6 160.6,344.4 	"/>
</g>
<path style="fill:#F4B382;" d="M327.9,175.2c0-92.4-35.7-113.6-79.8-113.6c-44,0-79.8,21.2-79.8,113.6c0,31.3,5.6,55.8,14,74.7
	c18.4,41.6,50.3,56.1,65.8,56.1s47.3-14.5,65.8-56.1C322.3,231,327.9,206.5,327.9,175.2z"/>
<g>
	<path style="fill:#AF4B19;" d="M288.7,71.1C272.5,54,237,58.7,237,58.7l0,0l0,0l0,0c-49.9,6.8-95.9,53.4-62.2,143.7
		c0,0-1.5-57.7,33.1-73.1s92.1-11.7,89.6-29.4C297.4,99,299,82.1,288.7,71.1z"/>
	<path style="fill:#AF4B19;" d="M269.8,60.1c10.6-4.9,35.7,7.6,48.3,26.3s30.7,58.7,6.8,114.7c0,0-30.2-87.3-63.1-124.6
		C262,76,263,63.3,269.8,60.1z"/>
</g>
<path style="fill:#603616;" d="M336.1,67.1c-32-26-130-16-178,16s0,54,0,54h178C336.1,137.1,368.1,93.1,336.1,67.1z"/>
<circle style="fill:#D61E1E;" cx="248.1" cy="95.1" r="27.5"/>
<g>
	<rect x="229.2" y="90.1" style="fill:#E6E7E8;" width="37.8" height="10.1"/>
	<rect x="243.1" y="76.2" style="fill:#E6E7E8;" width="10.1" height="37.8"/>
</g>
<g>
	<path style="fill:#F4B382;" d="M160.7,207.7c4.3,25.2,9.6,26.3,17.3,25l-8.1-54.8C162.2,179.3,156.4,182.6,160.7,207.7z"/>
	<path style="fill:#F4B382;" d="M326.5,178l-8.1,54.8c7.6,1.3,13,0.1,17.3-25C339.9,182.6,334.1,179.3,326.5,178z"/>
</g>
<path style="fill:#CC785E;" d="M274.8,263.8c0,0-14.2,9.6-26.7,9.6s-26.7-9.6-26.7-9.6c0-1.4,11.3-5.3,16.1-6
	c3-0.5,10.6,2.5,10.6,2.5s7.5-2.9,10.4-2.5C263.4,258.5,274.8,263.8,274.8,263.8z"/>
<path style="fill:#C16952;" d="M274.8,263.8c0,0-14.2,13.5-26.7,13.5s-26.7-13.5-26.7-13.5s6.5,1.5,19.6,0.7c2.2-0.1,5.1,1.6,7,1.6
	c1.7,0,4.2-1.8,6.1-1.7C267.9,265.2,274.8,263.8,274.8,263.8z"/>
<g>
</g>
<g>
</g>
<g>
</g>
<g>
</g>
<g>
</g>
<g>
</g>
<g>
</g>
<g>
</g>
<g>
</g>
<g>
</g>
<g>
</g>
<g>
</g>
<g>
</g>
<g>
</g>
<g>
</g>
</svg>
