<?xml version="1.0" encoding="iso-8859-1"?>
<!-- Generator: Adobe Illustrator 19.0.0, SVG Export Plug-In . SVG Version: 6.00 Build 0)  -->
<svg version="1.1" id="Layer_1" xmlns="http://www.w3.org/2000/svg" xmlns:xlink="http://www.w3.org/1999/xlink" x="0px" y="0px"
	 viewBox="0 0 496.2 496.2" style="enable-background:new 0 0 496.2 496.2;" xml:space="preserve">
<path style="fill:#A3D5E0;" d="M496.2,248.1C496.2,111.1,385.1,0,248.1,0S0,111.1,0,248.1s111.1,248.1,248.1,248.1
	S496.2,385.1,496.2,248.1z"/>
<g>
	<path style="fill:#E2A379;" d="M287,282.1h-77.8c12.1,36.6,1,53.3,1,53.3l26.9,6.1h22l26.9-6.1C286,335.4,274.9,318.7,287,282.1z"
		/>
	<path style="fill:#E2A379;" d="M248.2,390.1c44.9,0,37.8-54.7,37.8-54.7s-8.9,17.3-38.1,17.3s-37.5-17.3-37.5-17.3
		S203.3,390.1,248.2,390.1z"/>
	<path style="fill:#E2A379;" d="M247.8,333.4c-77.2,0-139.1,22.1-146.4,49.3c-3.3,12.2-7,35.2-10.1,57.5
		c42.7,34.9,97.4,55.9,156.9,55.9s114.1-21,156.9-55.9c-3.2-22.3-6.9-45.4-10.1-57.5C387.5,355.5,324.9,333.4,247.8,333.4z"/>
</g>
<polygon style="fill:#AF4B19;" points="349.1,408.1 147.1,408.1 159.8,153.1 335.2,132.6 "/>
<rect x="205.1" y="324.9" style="fill:#DEE0E2;" width="86" height="25"/>
<path style="fill:#337180;" d="M247.8,333.4c-77.2,0-139.1,22.1-146.4,49.3c-3.3,12.2-7,35.2-10.1,57.5
	c42.7,34.9,97.4,55.9,156.9,55.9s114.1-21,156.9-55.9c-3.2-22.3-6.9-45.4-10.1-57.5C387.5,355.5,324.9,333.4,247.8,333.4z"/>
<g>
	<path style="fill:#F3FAFF;" d="M293.9,336.2c-14.5-1.8-30-2.7-46.1-2.7c-15.9,0-31.2,0.9-45.5,2.7l45.8,91L293.9,336.2z"/>
	<path style="fill:#F3FAFF;" d="M168.1,357.2l37-32.3l32,63.9c0,0-25.2,7.1-25.5,6.8L168.1,357.2z"/>
	<path style="fill:#F3FAFF;" d="M328.1,357.2l-37-32.3l-32,63.9c0,0,25.2,7.1,25.5,6.8L328.1,357.2z"/>
</g>
<g>
	<path style="fill:#E2A379;" d="M248.1,412.1l-37.8-76.8c0,0,9.2-12.4,37.4-12.4s38.1,12.5,38.1,12.5L248.1,412.1z"/>
	<path style="fill:#E2A379;" d="M287,282.1h-77.8c12.1,36.6,1,53.3,1,53.3s16.4,6.1,37.9,6.1s37.9-6.1,37.9-6.1
		S274.9,318.7,287,282.1z"/>
</g>
<path style="fill:#F4B382;" d="M327.9,175.2c0-92.4-35.7-113.6-79.8-113.6c-44,0-79.8,21.2-79.8,113.6c0,31.3,5.6,55.8,14,74.7
	c18.4,41.6,50.3,56.1,65.8,56.1s47.3-14.5,65.8-56.1C322.3,231,327.9,206.5,327.9,175.2z"/>
<g>
	<path style="fill:#AF4B19;" d="M288.7,71.1C272.5,54,237,58.7,237,58.7l0,0l0,0l0,0c-35.2,4.8-75.9,73.9-75.9,73.9l-1.3,20.5
		c0,14.2,7.6,31.8,15,49.3c0,0-1.5-57.7,33.1-73.1s92.1-11.7,89.6-29.4C297.4,99,299,82.1,288.7,71.1z"/>
	<path style="fill:#AF4B19;" d="M269.8,60.1c10.6-4.9,35.7,7.6,48.3,26.3c6.7,9.9,14.5,25,17.1,46.2c0,0,0.3,42.3-10.2,68.5
		c0,0-30.2-87.3-63.1-124.6C262,76,263,63.3,269.8,60.1z"/>
</g>
<g>
	<path style="fill:#F4B382;" d="M160.7,207.7c4.3,25.2,9.6,26.3,17.3,25l-8.1-54.8C162.2,179.3,156.4,182.6,160.7,207.7z"/>
	<path style="fill:#F4B382;" d="M326.5,178l-8.1,54.8c7.6,1.3,13,0.1,17.3-25C339.9,182.6,334.1,179.3,326.5,178z"/>
</g>
<path style="fill:#CC785E;" d="M274.8,263.8c0,0-14.2,9.6-26.7,9.6s-26.7-9.6-26.7-9.6c0-1.4,11.3-5.3,16.1-6
	c3-0.5,10.6,2.5,10.6,2.5s7.5-2.9,10.4-2.5C263.4,258.5,274.8,263.8,274.8,263.8z"/>
<path style="fill:#C16952;" d="M274.8,263.8c0,0-14.2,13.5-26.7,13.5s-26.7-13.5-26.7-13.5s6.5,1.5,19.6,0.7c2.2-0.1,5.1,1.6,7,1.6
	c1.7,0,4.2-1.8,6.1-1.7C267.9,265.2,274.8,263.8,274.8,263.8z"/>
<rect x="161" y="93.6" style="fill:#242D2B;" width="174.1" height="39"/>
<path style="fill:#181E1D;" d="M257.9,125.7c-5.4,1.6-14.2,1.6-19.6,0L118.7,89.1c-2.8-0.8-4.1-2-4.1-3.1v-4.1h267c0,0,0,4.1,0,4.2
	c0,1.1-1.4,2.2-4.1,3L257.9,125.7z"/>
<path style="fill:#2A3633;" d="M257.9,121.5c-5.4,1.6-14.2,1.6-19.6,0L118.7,84.9c-5.4-1.7-5.4-4.3,0-6l119.6-36.6
	c5.4-1.7,14.2-1.7,19.6,0l119.6,36.6c5.4,1.7,5.4,4.3,0,6L257.9,121.5z"/>
<g>
	<path style="fill:#BC992F;" d="M323.8,99c-0.9,0-1.6,0.7-1.6,1.6v65.8c0,0.9,0.7,1.6,1.6,1.6s1.6-0.7,1.6-1.6v-65.8
		C325.4,99.7,324.7,99,323.8,99z"/>
	<path style="fill:#BC992F;" d="M324.2,99.1l-67.9-21.2c-0.9-0.3-1.8,0.2-2,1.1c-0.3,0.9,0.2,1.8,1.1,2l67.9,21.2
		c0.9,0.3,1.8-0.2,2-1.1C325.6,100.2,325.1,99.3,324.2,99.1z"/>
	<path style="fill:#BC992F;" d="M328.2,135.3c0,2.8-2,5.1-4.5,5.1s-4.5-2.3-4.5-5.1s2-5.1,4.5-5.1S328.2,132.5,328.2,135.3z"/>
	<path style="fill:#BC992F;" d="M322.2,139.6c0,0-4.5,5.2-4.5,8.3c0,1.3,0,8.6-0.1,13.8c0,3.2-2.4,5.7-2.4,5.7
		c0,1.8,16.9,1.8,16.9,0c0,0-2.4-2.4-2.4-5.5c0-5.2-0.1-12.3-0.1-13.8c0-3.4-4.5-8.5-4.5-8.5H322.2z"/>
</g>
<path style="fill:#181E1D;" d="M256.9,77.1c0,2.9-3.8,5.2-8.5,5.2s-8.5-2.4-8.5-5.2c0-2.9,3.8-5.3,8.5-5.3
	C253.1,71.8,256.9,74.2,256.9,77.1z"/>
<g>
</g>
<g>
</g>
<g>
</g>
<g>
</g>
<g>
</g>
<g>
</g>
<g>
</g>
<g>
</g>
<g>
</g>
<g>
</g>
<g>
</g>
<g>
</g>
<g>
</g>
<g>
</g>
<g>
</g>
</svg>
