<?xml version="1.0" encoding="iso-8859-1"?>
<!-- Generator: Adobe Illustrator 19.0.0, SVG Export Plug-In . SVG Version: 6.00 Build 0)  -->
<svg version="1.1" id="Layer_1" xmlns="http://www.w3.org/2000/svg" xmlns:xlink="http://www.w3.org/1999/xlink" x="0px" y="0px"
	 viewBox="0 0 496.2 496.2" style="enable-background:new 0 0 496.2 496.2;" xml:space="preserve">
<path style="fill:#32BEA6;" d="M496.2,248.1C496.2,111.1,385.1,0,248.1,0S0,111.1,0,248.1s111.1,248.1,248.1,248.1
	S496.2,385.1,496.2,248.1z"/>
<path style="fill:#295D66;" d="M248.1,496.2c70.2,0,133.6-29.2,178.7-76c-2.8-15.1-5.6-28.9-8.3-37.4
	c-8.5-27.3-81.2-49.3-170.8-49.3s-161.5,22-170,49.3c-2.6,8.5-5.5,22.2-8.3,37.4C114.5,467,177.9,496.2,248.1,496.2z"/>
<path style="fill:#DADDE0;" d="M293.9,336.2c-14.5-1.8-30-2.7-46.1-2.7c-15.9,0-31.2,0.9-45.5,2.7l45.8,91L293.9,336.2z"/>
<rect x="205.1" y="324.9" style="fill:#DEE0E2;" width="86" height="25"/>
<path style="fill:#E2A379;" d="M248.1,412.1l-37.8-76.8c0,0,9.2-12.4,37.4-12.4s38.1,12.5,38.1,12.5L248.1,412.1z"/>
<g>
	<path style="fill:#DADDE0;" d="M168.1,357.2l37-32.3l32,63.9c0,0-25.2,7.1-25.5,6.8L168.1,357.2z"/>
	<path style="fill:#DADDE0;" d="M328.1,357.2l-37-32.3l-32,63.9c0,0,25.2,7.1,25.5,6.8L328.1,357.2z"/>
</g>
<path style="fill:#E2A379;" d="M287,282.1h-77.8c12.1,36.6,1,53.3,1,53.3s16.9,6.1,37.9,6.1s37.9-6.1,37.9-6.1
	S274.9,318.7,287,282.1z"/>
<path style="fill:#F4B382;" d="M336.4,175.2c0-92.4-39.5-113.6-88.3-113.6c-48.7,0-88.3,21.2-88.3,113.6c0,31.3,6.2,55.8,15.5,74.7
	c20.4,41.6,55.7,56.1,72.8,56.1s52.4-14.5,72.8-56.1C330.2,231,336.4,206.5,336.4,175.2z"/>
<path style="fill:#47200D;" d="M336.4,175.2c0-92.4-30.3-116.1-88.3-116.1s-88.3,23.7-88.3,116.1c0,0,16.3-34.1,28.3-53.1
	s38-18.3,38-18.3h49c0,0,27,0.3,34.5,18.3L336.4,175.2z"/>
<g>
	<path style="fill:#191919;" d="M247.6,292.9h0.5C247.9,292.9,247.8,292.9,247.6,292.9L247.6,292.9z"/>
	<path style="fill:#191919;" d="M248.6,292.9L248.6,292.9c-0.2,0-0.3,0-0.5,0H248.6z"/>
</g>
<g>
	<path style="fill:#F4B382;" d="M170.4,238.7c-8.4,1.4-14.4,0.1-19.1-27.7s1.7-31.5,10.1-32.9L170.4,238.7z"/>
	<path style="fill:#F4B382;" d="M325.9,238.7c8.4,1.4,14.3,0.1,19.1-27.7c4.8-27.8-1.7-31.5-10.1-32.9L325.9,238.7z"/>
</g>
<g>
	<polygon style="fill:#141414;" points="186.6,194.6 172.6,193.9 173.2,191 187.1,191.7 	"/>
	<polygon style="fill:#141414;" points="309.3,194.6 308.7,191.7 322.6,191 323.2,193.9 	"/>
	<path style="fill:#141414;" d="M234.7,179.4h-45.9c-2.1,0-3.8,1.7-3.8,3.8v25.6c0,2.1,1.7,3.8,3.8,3.8h45.9c2.1,0,3.8-1.7,3.8-3.8
		v-25.7C238.5,181.1,236.8,179.4,234.7,179.4z M232.8,204.6c0,1.7-1.3,3-3,3h-36.3c-1.7,0-3-1.3-3-3v-17c0-1.7,1.3-3,3-3h36.3
		c1.7,0,3,1.3,3,3V204.6z"/>
	<path style="fill:#141414;" d="M307.4,179.4h-45.9c-2.1,0-3.8,1.7-3.8,3.8v25.6c0,2.1,1.7,3.8,3.8,3.8h45.9c2.1,0,3.8-1.7,3.8-3.8
		v-25.7C311.2,181.1,309.5,179.4,307.4,179.4z M305.6,204.6c0,1.7-1.3,3-3,3h-36.3c-1.7,0-3-1.3-3-3v-17c0-1.7,1.3-3,3-3h36.3
		c1.7,0,3,1.3,3,3V204.6z"/>
	<path style="fill:#141414;" d="M248,185.6c-11.2,0-12.3,6.9-12,10.4c-0.2,2.9,0.5,1.8,0.5,1.8c2.1-4.4,6.7-7.3,11.6-7.3
		c4.9,0,9.4,2.9,11.6,7.3c0,0,0.7,1.1,0.5-1.8C260.3,192.5,259.2,185.6,248,185.6z"/>
</g>
<g>
	<path style="fill:#E8D3BB;" d="M305.6,204.6c0,1.7-1.3,3-3,3h-36.3c-1.7,0-3-1.3-3-3v-17c0-1.7,1.3-3,3-3h36.3c1.7,0,3,1.3,3,3
		V204.6z"/>
	<path style="fill:#E8D3BB;" d="M232.8,204.6c0,1.7-1.3,3-3,3h-36.3c-1.7,0-3-1.3-3-3v-17c0-1.7,1.3-3,3-3h36.3c1.7,0,3,1.3,3,3
		V204.6z"/>
</g>
<path style="fill:#E5A173;" d="M274.8,257c0,2.6-11.9,9.5-26.7,9.5s-26.7-7-26.7-9.5c0-1.6,8.5-6.1,14.1-6.9
	c3.6-0.5,12.5,2.9,12.5,2.9s8.8-3.4,12.4-2.9C266.2,250.9,274.8,257,274.8,257z"/>
<path style="fill:#D89364;" d="M274.8,257c0,2.6-11.9,12.4-26.7,12.4s-26.7-9.9-26.7-12.4c0,0,10.9,1.3,26.7,1.3
	S274.8,257,274.8,257z"/>
<g>
	<path style="fill:#47200D;" d="M168.6,180.9l2.8,27.6l3.9-1.9c-0.2-23,2.6-73.8,2.6-73.8l-17.3,22.7c-0.4,6.2-0.7,12.8-0.7,19.8
		c0,0.9,0,1.8,0,2.7C163.8,177.8,168.6,178.2,168.6,180.9z"/>
	<path style="fill:#47200D;" d="M327.6,180.9l-2.8,27.6l-3.9-1.9c0.2-23-2.6-82.8-2.6-82.8l17.3,31.7c0.4,6.2,0.7,12.8,0.7,19.8
		c0,0.9,0,1.8,0,2.7C332.4,177.8,327.6,178.2,327.6,180.9z"/>
</g>
<g>
	<path style="fill:#FFFFFF;" d="M311.5,337.4L311.5,337.4L311.5,337.4L311.5,337.4z"/>
	<path style="fill:#FFFFFF;" d="M298.5,335.9L298.5,335.9L298.5,335.9z"/>
</g>
<g>
</g>
<g>
</g>
<g>
</g>
<g>
</g>
<g>
</g>
<g>
</g>
<g>
</g>
<g>
</g>
<g>
</g>
<g>
</g>
<g>
</g>
<g>
</g>
<g>
</g>
<g>
</g>
<g>
</g>
</svg>
