<?xml version="1.0" encoding="iso-8859-1"?>
<!-- Generator: Adobe Illustrator 19.0.0, SVG Export Plug-In . SVG Version: 6.00 Build 0)  -->
<svg version="1.1" id="Layer_1" xmlns="http://www.w3.org/2000/svg" xmlns:xlink="http://www.w3.org/1999/xlink" x="0px" y="0px"
	 viewBox="0 0 496.2 496.2" style="enable-background:new 0 0 496.2 496.2;" xml:space="preserve">
<path style="fill:#32BEA6;" d="M496.2,248.1C496.2,111.1,385.1,0,248.1,0S0,111.1,0,248.1s111.1,248.1,248.1,248.1
	S496.2,385.1,496.2,248.1z"/>
<path style="fill:#823D0F;" d="M248.1,496.2c70.2,0,133.6-29.2,178.7-76c-2.8-15.1-5.6-28.9-8.3-37.4
	c-8.5-27.3-81.2-49.3-170.8-49.3s-161.5,22-170,49.3c-2.6,8.5-5.5,22.2-8.3,37.4C114.5,467,177.9,496.2,248.1,496.2z"/>
<path style="fill:#F3FAFF;" d="M293.9,336.2c-14.5-1.8-30-2.7-46.1-2.7c-15.9,0-31.2,0.9-45.5,2.7l45.8,91L293.9,336.2z"/>
<rect x="205.1" y="324.9" style="fill:#DEE0E2;" width="86" height="25"/>
<path style="fill:#E2A379;" d="M248.1,412.1l-37.8-76.8c0,0,9.2-12.4,37.4-12.4s38.1,12.5,38.1,12.5L248.1,412.1z"/>
<g>
	<path style="fill:#F3FAFF;" d="M168.1,357.2l37-32.3l32,63.9c0,0-25.2,7.1-25.5,6.8L168.1,357.2z"/>
	<path style="fill:#F3FAFF;" d="M328.1,357.2l-37-32.3l-32,63.9c0,0,25.2,7.1,25.5,6.8L328.1,357.2z"/>
	<path style="fill:#F3FAFF;" d="M426.8,420.1c-2.8-15.1-5.6-28.9-8.3-37.4c-5.8-18.8-42.1-35.1-93.3-43.4l37.7,128.8
		C386.8,455.6,408.3,439.3,426.8,420.1z"/>
	<path style="fill:#F3FAFF;" d="M77.7,382.8c-2.6,8.5-5.5,22.2-8.3,37.4c18.4,19.1,39.8,35.2,63.4,47.7l37.6-128.4
		C119.4,347.7,83.5,364,77.7,382.8z"/>
</g>
<path style="fill:#E2A379;" d="M287,282.1h-77.8c12.1,36.6,1,53.3,1,53.3s16.9,6.1,37.9,6.1s37.9-6.1,37.9-6.1
	S274.9,318.7,287,282.1z"/>
<path style="fill:#F4B382;" d="M336.4,175.2c0-92.4-39.5-113.6-88.3-113.6c-48.7,0-88.3,21.2-88.3,113.6c0,31.3,6.2,55.8,15.5,74.7
	c20.4,41.6,55.7,56.1,72.8,56.1s52.4-14.5,72.8-56.1C330.2,231,336.4,206.5,336.4,175.2z"/>
<g>
	<path style="fill:#191919;" d="M247.6,292.9h0.5C247.9,292.9,247.8,292.9,247.6,292.9L247.6,292.9z"/>
	<path style="fill:#191919;" d="M248.6,292.9L248.6,292.9c-0.2,0-0.3,0-0.5,0H248.6z"/>
</g>
<g>
	<path style="fill:#F4B382;" d="M170.4,238.7c-8.4,1.4-14.4,0.1-19.1-27.7s1.7-31.5,10.1-32.9L170.4,238.7z"/>
	<path style="fill:#F4B382;" d="M325.9,238.7c8.4,1.4,14.3,0.1,19.1-27.7c4.8-27.8-1.7-31.5-10.1-32.9L325.9,238.7z"/>
</g>
<g>
	<path style="fill:#261D17;" d="M217.1,218.6c-11.9,0-21.5-9.6-21.5-21.5s9.6-21.5,21.5-21.5s21.5,9.6,21.5,21.5
		S229,218.6,217.1,218.6z M217.1,180.6c-9.1,0-16.5,7.4-16.5,16.5s7.4,16.5,16.5,16.5s16.5-7.4,16.5-16.5S226.2,180.6,217.1,180.6z"
		/>
	<path style="fill:#261D17;" d="M248,188.9c-10.3,0-11.4,5.5-11.1,8.7c-0.2,2.7,0.4,4.9,0.4,4.9c2-4.1,6.1-6.7,10.6-6.7
		s8.7,2.6,10.6,6.7c0,0,0.6-2.2,0.4-4.9C259.4,194.5,258.3,188.9,248,188.9z"/>
	<path style="fill:#261D17;" d="M279.1,218.6c-11.9,0-21.5-9.6-21.5-21.5s9.6-21.5,21.5-21.5s21.5,9.6,21.5,21.5
		S291,218.6,279.1,218.6z M279.1,180.6c-9.1,0-16.5,7.4-16.5,16.5s7.4,16.5,16.5,16.5s16.5-7.4,16.5-16.5S288.2,180.6,279.1,180.6z"
		/>
</g>
<g>
	<path style="fill:#E8D3BB;" d="M279.1,180.6c-9.1,0-16.5,7.4-16.5,16.5s7.4,16.5,16.5,16.5s16.5-7.4,16.5-16.5
		S288.2,180.6,279.1,180.6z"/>
	<path style="fill:#E8D3BB;" d="M217.1,180.6c-9.1,0-16.5,7.4-16.5,16.5s7.4,16.5,16.5,16.5s16.5-7.4,16.5-16.5
		S226.2,180.6,217.1,180.6z"/>
</g>
<g>
	
		<rect x="172.709" y="193.407" transform="matrix(-0.9784 -0.2067 0.2067 -0.9784 325.3394 423.8042)" style="fill:#261D17;" width="24.2" height="3"/>
	
		<rect x="309.632" y="182.839" transform="matrix(-0.2064 -0.9785 0.9785 -0.2064 184.6052 539.6065)" style="fill:#261D17;" width="3" height="24.201"/>
</g>
<path style="fill:#E5A173;" d="M274.8,257c0,2.6-11.9,9.5-26.7,9.5s-26.7-7-26.7-9.5c0-1.6,8.5-6.1,14.1-6.9
	c3.6-0.5,12.5,2.9,12.5,2.9s8.8-3.4,12.4-2.9C266.2,250.9,274.8,257,274.8,257z"/>
<path style="fill:#D89364;" d="M274.8,257c0,2.6-11.9,12.4-26.7,12.4s-26.7-9.9-26.7-12.4c0,0,10.9,1.3,26.7,1.3
	S274.8,257,274.8,257z"/>
<g>
	<path style="fill:#E6E7E8;" d="M168.6,180.9l2.8,27.6l3.9-1.9c-0.2-23,2.6-51.1,2.6-51.1l-17.3-0.1c-0.4,6.2-0.7,12.8-0.7,19.8
		c0,0.9,0,1.8,0,2.7C163.8,177.8,168.6,178.2,168.6,180.9z"/>
	<path style="fill:#E6E7E8;" d="M327.6,180.9l-2.8,27.6l-3.9-1.9c0.2-23-2.6-51.1-2.6-51.1l17.3-0.1c0.4,6.2,0.7,12.8,0.7,19.8
		c0,0.9,0,1.8,0,2.7C332.4,177.8,327.6,178.2,327.6,180.9z"/>
</g>
<g>
	<path style="fill:#FFFFFF;" d="M311.5,337.4L311.5,337.4L311.5,337.4L311.5,337.4z"/>
	<path style="fill:#FFFFFF;" d="M298.5,335.9L298.5,335.9L298.5,335.9z"/>
</g>
<g>
</g>
<g>
</g>
<g>
</g>
<g>
</g>
<g>
</g>
<g>
</g>
<g>
</g>
<g>
</g>
<g>
</g>
<g>
</g>
<g>
</g>
<g>
</g>
<g>
</g>
<g>
</g>
<g>
</g>
</svg>
