<?xml version="1.0" encoding="iso-8859-1"?>
<!-- Generator: Adobe Illustrator 19.0.0, SVG Export Plug-In . SVG Version: 6.00 Build 0)  -->
<svg version="1.1" id="Layer_1" xmlns="http://www.w3.org/2000/svg" xmlns:xlink="http://www.w3.org/1999/xlink" x="0px" y="0px"
	 viewBox="0 0 496.2 496.2" style="enable-background:new 0 0 496.2 496.2;" xml:space="preserve">
<path style="fill:#32BEA6;" d="M496.2,248.1C496.2,111.1,385.1,0,248.1,0S0,111.1,0,248.1s111.1,248.1,248.1,248.1
	S496.2,385.1,496.2,248.1z"/>
<g>
	<path style="fill:#E2A379;" d="M287,282.1h-77.8c12.1,36.6,1,53.3,1,53.3l26.9,6.1h22l26.9-6.1C286,335.4,274.9,318.7,287,282.1z"
		/>
	<path style="fill:#E2A379;" d="M248.2,390.1c44.9,0,37.8-54.7,37.8-54.7s-8.9,17.3-38.1,17.3s-37.5-17.3-37.5-17.3
		S203.3,390.1,248.2,390.1z"/>
	<path style="fill:#E2A379;" d="M247.8,333.4c-77.2,0-139.1,22.1-146.4,49.3c-3.3,12.2-7,35.2-10.1,57.5
		c42.7,34.9,97.4,55.9,156.9,55.9s114.1-21,156.9-55.9c-3.2-22.3-6.9-45.4-10.1-57.5C387.5,355.5,324.9,333.4,247.8,333.4z"/>
</g>
<rect x="205.1" y="324.9" style="fill:#DEE0E2;" width="86" height="25"/>
<path style="fill:#823D0F;" d="M247.8,333.4c-77.2,0-139.1,22.1-146.4,49.3c-3.3,12.2-7,35.2-10.1,57.5
	c42.7,34.9,97.4,55.9,156.9,55.9s114.1-21,156.9-55.9c-3.2-22.3-6.9-45.4-10.1-57.5C387.5,355.5,324.9,333.4,247.8,333.4z"/>
<g>
	<path style="fill:#F3FAFF;" d="M293.9,336.2c-14.5-1.8-30-2.7-46.1-2.7c-15.9,0-31.2,0.9-45.5,2.7l45.8,91L293.9,336.2z"/>
	<path style="fill:#F3FAFF;" d="M168.1,357.2l37-32.3l32,63.9c0,0-25.2,7.1-25.5,6.8L168.1,357.2z"/>
	<path style="fill:#F3FAFF;" d="M328.1,357.2l-37-32.3l-32,63.9c0,0,25.2,7.1,25.5,6.8L328.1,357.2z"/>
</g>
<path style="fill:#E2A379;" d="M248.1,412.1l-37.8-76.8c0,0,9.2-12.4,37.4-12.4s38.1,12.5,38.1,12.5L248.1,412.1z"/>
<g>
	<path style="fill:#F3FAFF;" d="M394.8,382.8c-4.2-15.6-26.4-29.5-59.1-38.5L355,472.1c18-8.6,34.7-19.3,50-31.7
		C401.8,417.9,398.1,394.9,394.8,382.8z"/>
	<path style="fill:#F3FAFF;" d="M101.4,382.8c-3.3,12.2-7,35.2-10.1,57.5c15,12.3,31.5,22.8,49.1,31.3l19.2-127.2
		C127.3,353.4,105.5,367.2,101.4,382.8z"/>
</g>
<path style="fill:#E2A379;" d="M287,282.1h-77.8c12.1,36.6,1,53.3,1,53.3s16.4,6.1,37.9,6.1s37.9-6.1,37.9-6.1
	S274.9,318.7,287,282.1z"/>
<path style="fill:#F4B382;" d="M327.9,175.2c0-92.4-35.7-113.6-79.8-113.6c-44,0-79.8,21.2-79.8,113.6c0,31.3,5.6,55.8,14,74.7
	c18.4,41.6,50.3,56.1,65.8,56.1s47.3-14.5,65.8-56.1C322.3,231,327.9,206.5,327.9,175.2z"/>
<g>
	<path style="fill:#261D17;" d="M217.1,218.6c-11.9,0-21.5-9.6-21.5-21.5s9.6-21.5,21.5-21.5s21.5,9.6,21.5,21.5
		S229,218.6,217.1,218.6z M217.1,180.6c-9.1,0-16.5,7.4-16.5,16.5s7.4,16.5,16.5,16.5s16.5-7.4,16.5-16.5S226.2,180.6,217.1,180.6z"
		/>
	<path style="fill:#261D17;" d="M248,188.9c-10.3,0-11.4,5.5-11.1,8.7c-0.2,2.7,0.4,4.9,0.4,4.9c2-4.1,6.1-6.7,10.6-6.7
		s8.7,2.6,10.6,6.7c0,0,0.6-2.2,0.4-4.9C259.4,194.5,258.3,188.9,248,188.9z"/>
	<path style="fill:#261D17;" d="M279.1,218.6c-11.9,0-21.5-9.6-21.5-21.5s9.6-21.5,21.5-21.5s21.5,9.6,21.5,21.5
		S291,218.6,279.1,218.6z M279.1,180.6c-9.1,0-16.5,7.4-16.5,16.5s7.4,16.5,16.5,16.5s16.5-7.4,16.5-16.5S288.2,180.6,279.1,180.6z"
		/>
</g>
<g>
	<path style="fill:#E8D3BB;" d="M279.1,180.6c-9.1,0-16.5,7.4-16.5,16.5s7.4,16.5,16.5,16.5s16.5-7.4,16.5-16.5
		S288.2,180.6,279.1,180.6z"/>
	<path style="fill:#E8D3BB;" d="M217.1,180.6c-9.1,0-16.5,7.4-16.5,16.5s7.4,16.5,16.5,16.5s16.5-7.4,16.5-16.5
		S226.2,180.6,217.1,180.6z"/>
</g>
<g>
	
		<rect x="172.709" y="193.407" transform="matrix(-0.9784 -0.2067 0.2067 -0.9784 325.3394 423.8042)" style="fill:#261D17;" width="24.2" height="3"/>
	
		<rect x="309.632" y="182.839" transform="matrix(-0.2064 -0.9785 0.9785 -0.2064 184.6052 539.6065)" style="fill:#261D17;" width="3" height="24.201"/>
</g>
<g>
	<path style="fill:#E6E7E8;" d="M288.7,71.1C272.5,54,237,58.7,237,58.7l0,0l0,0l0,0c-68.8,0-75.9,73.9-75.9,73.9l-1.3,20.5
		c0,14.2,7.6,31.8,15,49.3c0,0-1.5-57.7,33.1-73.1s92.1-11.7,89.6-29.4C297.4,99,299,82.1,288.7,71.1z"/>
	<path style="fill:#E6E7E8;" d="M269.8,60.1c10.6-4.9,35.7,7.6,48.3,26.3c6.7,9.9,14.5,25,17.1,46.2c0,0,0.3,42.3-10.2,68.5
		c0,0-30.2-87.3-63.1-124.6C262,76,263,63.3,269.8,60.1z"/>
	<circle style="fill:#E6E7E8;" cx="248.1" cy="72" r="30.7"/>
</g>
<g>
	<path style="fill:#F4B382;" d="M160.7,207.7c4.3,25.2,9.6,26.3,17.3,25l-8.1-54.8C162.2,179.3,156.4,182.6,160.7,207.7z"/>
	<path style="fill:#F4B382;" d="M326.5,178l-8.1,54.8c7.6,1.3,13,0.1,17.3-25C339.9,182.6,334.1,179.3,326.5,178z"/>
</g>
<path style="fill:#CC785E;" d="M274.8,263.8c0,0-14.2,9.6-26.7,9.6s-26.7-9.6-26.7-9.6c0-1.4,11.3-5.3,16.1-6
	c3-0.5,10.6,2.5,10.6,2.5s7.5-2.9,10.4-2.5C263.4,258.5,274.8,263.8,274.8,263.8z"/>
<path style="fill:#C16952;" d="M274.8,263.8c0,0-14.2,13.5-26.7,13.5s-26.7-13.5-26.7-13.5s6.5,1.5,19.6,0.7c2.2-0.1,5.1,1.6,7,1.6
	c1.7,0,4.2-1.8,6.1-1.7C267.9,265.2,274.8,263.8,274.8,263.8z"/>
<g>
</g>
<g>
</g>
<g>
</g>
<g>
</g>
<g>
</g>
<g>
</g>
<g>
</g>
<g>
</g>
<g>
</g>
<g>
</g>
<g>
</g>
<g>
</g>
<g>
</g>
<g>
</g>
<g>
</g>
</svg>
