<?xml version="1.0" encoding="utf-8"?>
<!-- Generator: Adobe Illustrator 18.0.0, SVG Export Plug-In . SVG Version: 6.00 Build 0)  -->
<!DOCTYPE svg PUBLIC "-//W3C//DTD SVG 1.1//EN" "http://www.w3.org/Graphics/SVG/1.1/DTD/svg11.dtd">
<svg version="1.1" id="Layer_1" xmlns="http://www.w3.org/2000/svg" xmlns:xlink="http://www.w3.org/1999/xlink" x="0px" y="0px"
	 viewBox="0 0 73.5 64.9" enable-background="new 0 0 73.5 64.9" xml:space="preserve">
<path fill="#4E4F50" d="M60.1,63.6c1.3,0,2.3-1,2.3-2.3V36.8h6h0c2.2,0,4-1.8,4-4c0-1.3-0.6-2.4-1.5-3.1L63.2,23V11.8
	c0-1.3-1.1-2.4-2.4-2.4h-4.9c-1.3,0-2.4,1.1-2.4,2.4v2.8l-13.8-12c-1.5-1.3-3.7-1.3-5.2,0L3,29.9c-1.3,1.1-1.7,2.8-1.1,4.4
	c0.6,1.6,2.1,2.6,3.7,2.6h6v24.5c0,1.3,1,2.3,2.3,2.3h13.5V45.8c0-2.5,2-4.6,4.6-4.6h10c2.5,0,4.6,2,4.6,4.6v17.8H60.1z"/>
</svg>
